<?xml version="1.0" encoding="UTF-8"?>
<svg id="Capa_2" data-name="Capa 2" xmlns="http://www.w3.org/2000/svg" viewBox="0 0 777.37 270.73">
  <defs>
    <style>
      .cls-1 {
        fill: #0a60c5;
      }
    </style>
  </defs>
  <g id="Capa_1-2" data-name="Capa 1">
    <g>
      <path class="cls-1" d="m467.76,67.69c1.63,1.79,2.49,2.81,3.43,3.74,29.69,29.65,59.32,59.36,89.1,88.92,17.18,17.05,36.95,30.02,60.45,36.75,10.7,3.07,21.58,5.19,32.79,5.18,39.75-.01,79.49.04,119.24-.08,3.57-.01,4.62.89,4.59,4.53-.18,19.96-.14,39.93-.02,59.89.02,3.01-.69,4.06-3.91,4.05-38.12-.11-76.24.27-114.36-.18-28.88-.34-56.82-5.79-83.31-17.86-19.16-8.73-36.72-19.79-52.22-34.04-4.67-4.3-9.34-8.6-13.83-13.07-49.25-49.12-98.47-98.27-147.69-147.43-6.82-6.81-10.46-15.2-10.06-24.69.81-19.37,14.97-33.22,34.21-33.24,128.49-.09,256.97-.05,385.46-.05q5.65,0,5.65,5.72c0,19.09-.13,38.19.11,57.27.05,3.97-1.19,4.67-4.85,4.66-99.61-.1-199.23-.08-298.84-.08-1.61,0-3.22,0-5.92,0Z"/>
      <path class="cls-1" d="m67.76,68.42v5.06c0,64.14-.03,128.28.08,192.42,0,3.7-.77,4.86-4.7,4.82-19.62-.22-39.25-.17-58.87-.03C1.12,270.7,0,270.07,0,266.61.1,179.14.1,91.66,0,4.19,0,.84.94.04,4.21.05c43,.11,86-.33,128.98.32,12.84.19,25.76,2.73,38.42,5.28,16.73,3.37,32.54,9.7,47.64,17.66,12.93,6.82,25.23,14.63,36.11,24.43,8.5,7.66,16.92,15.42,25.02,23.49,65.46,65.24,130.84,130.56,196.23,195.85.87.87,1.7,1.78,3.01,3.15-1.42.17-2.29.37-3.17.37-30,.02-59.99.06-89.99-.1-1.81,0-4.03-1.17-5.36-2.5-54.51-54.29-108.9-108.69-163.41-162.98-13.22-13.17-29.04-22.44-46.46-28.95-11.95-4.47-24.28-7.53-37.12-7.62-21.93-.16-43.86-.04-66.36-.04Z"/>
    </g>
  </g>
</svg>